<svg height="512pt" viewBox="-61 0 512 512" width="512pt" xmlns="http://www.w3.org/2000/svg"><path d="m156.6875 477.164062c1.679688 19.515626 18.046875 34.835938 38 34.835938s36.316406-15.320312 38-34.835938zm0 0" fill="#618baa"/><path d="m193.882812 94.128906c-60.859374.429688-110.523437 50.179688-110.851562 111.039063-.128906 23.410156 6.953125 45.160156 19.152344 63.160156 21.660156 31.96875 34.28125 69.152344 35.4375 107.644531h114.179687c1.460938-38.605468 14.109375-75.902344 35.699219-108.097656 11.902344-17.753906 18.847656-39.109375 18.847656-62.089844 0-61.9375-50.429687-112.09375-112.464844-111.65625zm0 0" fill="#ffe578"/><path d="m253.078125 246.972656c-3.449219-2.402344-8.195313-1.550781-10.59375 1.898438l-3.996094 5.738281h-25.546875v-3.902344c0-4.203125-3.40625-7.609375-7.613281-7.609375-4.203125 0-7.609375 3.40625-7.609375 7.609375v3.902344h-6.066406v-3.902344c0-4.203125-3.40625-7.609375-7.609375-7.609375s-7.609375 3.40625-7.609375 7.609375v3.902344h-25.546875l-3.996094-5.738281c-2.398437-3.449219-7.144531-4.300782-10.59375-1.898438-3.449219 2.398438-4.300781 7.144532-1.898437 10.59375l21.378906 30.722656c3.75 5.386719 5.734375 11.707032 5.734375 18.273438v62.160156c0 4.203125 3.40625 7.609375 7.609375 7.609375s7.609375-3.40625 7.609375-7.609375v-62.160156c0-9.691406-2.925781-19.015625-8.460938-26.96875l-6.789062-9.757812h14.953125v4.398437c0 4.203125 3.40625 7.609375 7.609375 7.609375s7.609375-3.40625 7.609375-7.609375v-4.398437h6.066406v4.398437c0 4.203125 3.410156 7.609375 7.609375 7.609375 4.203125 0 7.613281-3.40625 7.613281-7.609375v-4.398437h14.953125l-6.792969 9.757812c-5.535156 7.953125-8.460937 17.277344-8.460937 26.96875v62.160156c0 4.203125 3.410156 7.609375 7.613281 7.609375 4.199219 0 7.609375-3.40625 7.609375-7.609375v-62.160156c0-6.566406 1.984375-12.882812 5.734375-18.273438l21.378906-30.722656c2.402344-3.449218 1.550782-8.195312-1.898437-10.59375zm0 0" fill="#fdc142"/><path d="m233.179688 390.742188-76.464844.496093-.472656-60.902343c-.023438-3.363282 2.679687-6.109376 6.042968-6.136719l64.285156-.402344c3.363282-.027344 6.109376 2.679687 6.136719 6.042969zm0 0" fill="#fd9e28"/><path d="m195.710938 382.214844c-4.207032 0-7.613282-3.40625-7.613282-7.613282v-20.738281c0-4.203125 3.410156-7.609375 7.613282-7.609375 4.203124 0 7.609374 3.40625 7.609374 7.609375v20.738281c0 4.207032-3.410156 7.613282-7.609374 7.613282zm0 0" fill="#fd8724"/><path d="m264.234375 377.011719v67.917969c0 20.09375-16.289063 36.382812-36.382813 36.382812h-66.332031c-20.09375 0-36.382812-16.289062-36.382812-36.382812v-67.917969c0-4.574219 3.714843-8.289063 8.292969-8.289063h122.515624c4.574219 0 8.289063 3.714844 8.289063 8.289063zm0 0" fill="#bddff4"/><path d="m125.136719 384.898438h139.097656v49.546874h-139.097656zm0 0" fill="#adc9e2"/><path d="m265.519531 422.265625h-141.664062c-2.75 0-4.976563-2.226563-4.976563-4.976563v-15.234374c0-2.746094 2.226563-4.976563 4.976563-4.976563h141.664062c2.75 0 4.976563 2.230469 4.976563 4.976563v15.234374c0 2.75-2.226563 4.976563-4.976563 4.976563zm0 0" fill="#ffe578"/><g fill="#fdc142"><path d="m381.765625 202.300781h-31.953125c-4.203125 0-7.609375-3.410156-7.609375-7.613281s3.40625-7.609375 7.609375-7.609375h31.953125c4.203125 0 7.609375 3.40625 7.609375 7.609375s-3.40625 7.613281-7.609375 7.613281zm0 0"/><path d="m39.5625 202.300781h-31.953125c-4.203125 0-7.609375-3.410156-7.609375-7.613281s3.40625-7.609375 7.609375-7.609375h31.953125c4.203125 0 7.609375 3.40625 7.609375 7.609375s-3.40625 7.613281-7.609375 7.613281zm0 0"/><path d="m326.96875 334.582031c-1.945312 0-3.894531-.742187-5.378906-2.226562l-22.59375-22.59375c-2.972656-2.972657-2.972656-7.792969 0-10.765625s7.792968-2.96875 10.765625 0l22.589843 22.59375c2.972657 2.972656 2.972657 7.792968 0 10.765625-1.484374 1.484375-3.433593 2.226562-5.382812 2.226562zm0 0"/><path d="m84.996094 92.609375c-1.949219 0-3.894532-.742187-5.382813-2.230469l-22.589843-22.589844c-2.972657-2.972656-2.972657-7.792968 0-10.765624 2.96875-2.972657 7.789062-2.972657 10.761718 0l22.59375 22.589843c2.972656 2.976563 2.972656 7.792969 0 10.765625-1.488281 1.484375-3.433594 2.230469-5.382812 2.230469zm0 0"/><path d="m62.402344 334.582031c-1.945313 0-3.894532-.742187-5.378906-2.226562-2.972657-2.972657-2.972657-7.792969 0-10.765625l22.589843-22.59375c2.972657-2.972656 7.792969-2.972656 10.765625 0s2.972656 7.792968 0 10.765625l-22.59375 22.59375c-1.484375 1.484375-3.433594 2.226562-5.382812 2.226562zm0 0"/><path d="m304.378906 92.609375c-1.949218 0-3.898437-.742187-5.382812-2.230469-2.972656-2.972656-2.972656-7.789062 0-10.765625l22.59375-22.589843c2.96875-2.972657 7.789062-2.972657 10.761718 0 2.972657 2.972656 2.972657 7.792968 0 10.765624l-22.589843 22.589844c-1.488281 1.484375-3.4375 2.230469-5.382813 2.230469zm0 0"/><path d="m194.6875 47.171875c-4.203125 0-7.613281-3.40625-7.613281-7.609375v-31.953125c0-4.203125 3.410156-7.609375 7.613281-7.609375s7.613281 3.40625 7.613281 7.609375v31.953125c0 4.203125-3.410156 7.609375-7.613281 7.609375zm0 0"/></g></svg>