<?xml version="1.0" encoding="iso-8859-1"?>
<!-- Generator: Adobe Illustrator 19.0.0, SVG Export Plug-In . SVG Version: 6.00 Build 0)  -->
<svg version="1.1" id="Capa_1" xmlns="http://www.w3.org/2000/svg" xmlns:xlink="http://www.w3.org/1999/xlink" x="0px" y="0px"
	 viewBox="0 0 512 512" style="enable-background:new 0 0 512 512;" xml:space="preserve">
<path style="fill:#C9C6CA;" d="M314.718,269.29l-47.055-18.512H100.638L53.583,269.29c-18.043,7.098-29.615,24.839-28.839,44.212
	l5.713,142.631c0.326,8.143,7.022,14.577,15.172,14.577h277.044c8.15,0,14.846-6.433,15.172-14.577l5.713-142.631
	C344.333,294.129,332.761,276.388,314.718,269.29z"/>
<polygon style="fill:#6E4B53;" points="173.064,303.684 163.351,470.71 204.95,470.71 195.237,303.684 "/>
<path style="fill:#5C414B;" d="M191.077,311.276h-13.852c-4.561,0-8.258-3.697-8.258-8.258v-22.11h30.368v22.11
	C199.335,307.579,195.637,311.276,191.077,311.276z"/>
<rect x="131.01" y="189.8" style="fill:#E6AF78;" width="106.29" height="91.11"/>
<path style="fill:#D29B6E;" d="M131.006,218.153c15.056,10.843,33.443,17.202,53.145,17.202s38.088-6.359,53.145-17.202v-28.35
	h-106.29V218.153z"/>
<path style="fill:#6E4B53;" d="M184.151,0.239c-37.905,2.049-59.471,22.776-59.471,22.776s-31.634,0-31.634,37.96
	c0,30.368,7.592,60.498,7.592,60.498h174.618C290.44,37.961,254.377-3.557,184.151,0.239z"/>
<path style="fill:#5C414B;" d="M138.598,90.144c-27.89-34.87-13.919-67.129-13.919-67.129s-31.634,0-31.634,37.96
	c0,30.368,7.592,60.498,7.592,60.498h37.96L138.598,90.144L138.598,90.144z"/>
<path style="fill:#F0C087;" d="M267.663,113.882h-7.592l-10.004-18.258c-1.58-2.883-4.869-4.36-8.103-3.768
	c-50.001,9.146-82.861-2.476-95.312-8.294c-3.262-1.524-7.145-0.522-9.241,2.405c-7.683,10.731-16.161,19.189-21.245,23.869
	c-2.822,2.599-6.486,4.044-10.323,4.044h-5.463c-0.004,0-0.007,0.002-0.012,0.002c-0.832,0.015-1.682,0.103-2.547,0.27
	c-7.389,1.428-12.368,8.492-12.368,16.017v5.502c0,7.262,4.65,14.112,11.721,15.763c1.593,0.372,3.143,0.477,4.627,0.359
	c3.775-0.301,7.07,2.446,7.75,6.171c6.454,35.374,37.36,62.204,74.599,62.204s68.144-26.83,74.599-62.204
	c0.655-3.588,3.752-6.201,7.35-6.125h1.564c8.386,0,15.184-6.798,15.184-15.184v-7.592
	C282.848,120.68,276.049,113.882,267.663,113.882z"/>
<path style="fill:#E6AF78;" d="M138.598,144.25V84.809c-0.413,0.365-0.854,0.694-1.187,1.159
	c-7.683,10.731-16.161,19.189-21.245,23.869c-2.822,2.599-6.486,4.044-10.323,4.044h-5.463c-0.004,0-0.007,0.002-0.012,0.002
	c-0.832,0.015-1.682,0.103-2.547,0.27c-7.389,1.428-12.368,8.492-12.368,16.017v5.502c0,7.262,4.65,14.112,11.721,15.763
	c1.593,0.372,3.143,0.477,4.627,0.359c3.775-0.301,7.07,2.446,7.75,6.171c6.454,35.374,37.36,62.204,74.599,62.204
	c5.162,0,10.184-0.563,15.054-1.546C164.616,211.54,138.598,180.934,138.598,144.25z"/>
<g>
	<path style="fill:#DBD9DC;" d="M184.151,281.146l-55.391-48.467c-3.008-2.632-7.542-2.481-10.368,0.345l-17.754,17.754
		l35.279,52.918c5.315,7.973,16.595,9.09,23.371,2.314L184.151,281.146z"/>
	<path style="fill:#DBD9DC;" d="M184.151,281.146l55.391-48.467c3.008-2.632,7.542-2.481,10.368,0.345l17.754,17.754l-35.279,52.918
		c-5.315,7.973-16.595,9.09-23.371,2.314L184.151,281.146z"/>
	<path style="fill:#DBD9DC;" d="M64.518,320.948l-33.03-33.03c-4.608,7.519-7.115,16.346-6.745,25.584l5.713,142.631
		c0.326,8.143,7.023,14.577,15.172,14.577h32.233V353.158C77.861,341.078,73.061,329.491,64.518,320.948z"/>
</g>
<g>
	<path style="fill:#6E4B53;" d="M330.389,305.548c0-4.552,3.702-8.258,8.258-8.258h49.548c4.556,0,8.258,3.706,8.258,8.258v33.032
		h16.516v-33.032c0-13.661-11.113-24.774-24.774-24.774h-49.548c-13.661,0-24.774,11.113-24.774,24.774v33.032h16.516V305.548z"/>
	<path style="fill:#6E4B53;" d="M247.809,371.613v116.453c0,13.219,10.716,23.934,23.934,23.934h183.358
		c13.218,0,23.934-10.716,23.934-23.934V371.613H247.809z"/>
</g>
<path style="fill:#825A5A;" d="M363.422,437.677c14.479,0,28.377-1.196,41.293-3.394l33.023-8.527
	c30.091-10.881,49.555-28.206,49.555-47.72v-22.939c0-13.682-11.092-24.774-24.774-24.774H264.325
	c-13.682,0-24.774,11.092-24.774,24.774v22.939c0,19.514,19.464,36.839,49.555,47.72l33.023,8.527
	C335.044,436.481,348.943,437.677,363.422,437.677z"/>
<g>
	<path style="fill:#C9C6CA;" d="M305.615,454.194L305.615,454.194c-9.122,0-16.516-7.395-16.516-16.516v-16.516
		c0-4.561,3.697-8.258,8.258-8.258h16.516c4.561,0,8.258,3.697,8.258,8.258v16.516C322.131,446.799,314.737,454.194,305.615,454.194
		z"/>
	<path style="fill:#C9C6CA;" d="M421.228,454.194L421.228,454.194c-9.122,0-16.516-7.395-16.516-16.516v-16.516
		c0-4.561,3.697-8.258,8.258-8.258h16.516c4.561,0,8.258,3.697,8.258,8.258v16.516C437.744,446.799,430.35,454.194,421.228,454.194z
		"/>
</g>
<g>
	<circle style="fill:#DBD9DC;" cx="305.62" cy="437.68" r="8.258"/>
	<circle style="fill:#DBD9DC;" cx="421.23" cy="437.68" r="8.258"/>
</g>
<g>
</g>
<g>
</g>
<g>
</g>
<g>
</g>
<g>
</g>
<g>
</g>
<g>
</g>
<g>
</g>
<g>
</g>
<g>
</g>
<g>
</g>
<g>
</g>
<g>
</g>
<g>
</g>
<g>
</g>
</svg>
