<?xml version="1.0" encoding="iso-8859-1"?>
<!-- Generator: Adobe Illustrator 19.0.0, SVG Export Plug-In . SVG Version: 6.00 Build 0)  -->
<svg version="1.1" id="Layer_1" xmlns="http://www.w3.org/2000/svg" xmlns:xlink="http://www.w3.org/1999/xlink" x="0px" y="0px"
	 viewBox="0 0 512 512" style="enable-background:new 0 0 512 512;" xml:space="preserve">
<path style="fill:#FDA162;" d="M97.807,41.394v221.526H20.758V74.605c0-18.266,14.945-33.211,33.211-33.211H97.807z"/>
<g>
	<path style="fill:#FD7555;" d="M491.242,74.605v188.316h-77.049V41.394h43.838C476.298,41.394,491.242,56.339,491.242,74.605z"/>
	<polygon style="fill:#FD7555;" points="491.242,262.921 491.242,512 458.032,512 424.821,240.78 	"/>
</g>
<g>
	<polygon style="fill:#FDA162;" points="458.032,229.71 458.032,512 20.758,512 20.758,262.921 	"/>
	<polygon style="fill:#FDA162;" points="405.338,41.394 459.283,196.499 372.188,229.71 372.188,41.394 	"/>
</g>
<polygon style="fill:#FDFA7B;" points="468.139,196.499 491.242,262.921 449.241,262.921 413.658,229.71 426.137,196.499 "/>
<path style="fill:#FDCE6E;" d="M372.188,41.394H97.807L43.862,196.499L256,218.64l170.137-22.14L372.188,41.394z M333.492,152.218
	H178.509c-18.343,0-33.211-14.867-33.211-33.211s14.867-33.211,33.211-33.211h154.983c18.343,0,33.211,14.867,33.211,33.211
	S351.835,152.218,333.492,152.218z"/>
<polygon style="fill:#FEFDCA;" points="43.862,196.499 20.758,262.921 449.241,262.921 426.137,196.499 "/>
<g>
	<circle style="fill:#FDCE6E;" cx="79.02" cy="318.269" r="8.303"/>
	<circle style="fill:#FDCE6E;" cx="112.23" cy="351.48" r="8.303"/>
	<circle style="fill:#FDCE6E;" cx="432.979" cy="456.647" r="8.303"/>
</g>
<path style="fill:#FDFA7B;" d="M120.838,0.464c-4.327-1.507-9.063,0.784-10.57,5.114l-89.51,257.342H38.34l87.613-251.887
	C127.459,6.702,125.169,1.97,120.838,0.464z"/>
<path style="fill:#FDCE6E;" d="M401.732,5.578c-1.506-4.332-6.238-6.621-10.57-5.114c-4.331,1.506-6.62,6.238-5.114,10.569
	l87.613,251.887h17.582L401.732,5.578z"/>
<g>
</g>
<g>
</g>
<g>
</g>
<g>
</g>
<g>
</g>
<g>
</g>
<g>
</g>
<g>
</g>
<g>
</g>
<g>
</g>
<g>
</g>
<g>
</g>
<g>
</g>
<g>
</g>
<g>
</g>
</svg>
